<mxfile host="app.diagrams.net" agent="Mozilla/5.0 (X11; Linux x86_64) AppleWebKit/537.36 (KHTML, like Gecko) Chrome/130.0.0.0 Safari/537.36" version="25.0.3" pages="2">
  <diagram name="Page-1" id="c_E9XjXI0APuOMZH2Bya">
    <mxGraphModel dx="2924" dy="2206" grid="1" gridSize="10" guides="1" tooltips="1" connect="1" arrows="1" fold="1" page="1" pageScale="1" pageWidth="850" pageHeight="1100" math="0" shadow="0">
      <root>
        <mxCell id="0" />
        <mxCell id="1" parent="0" />
        <mxCell id="Ape72RLgG0tCSwMCIwrx-3" value="Init Api" style="swimlane;whiteSpace=wrap;html=1;fillColor=#fff2cc;strokeColor=#d6b656;swimlaneFillColor=#FFF2CC;" vertex="1" parent="1">
          <mxGeometry x="-750" y="-1050" width="650" height="960" as="geometry" />
        </mxCell>
        <mxCell id="Ape72RLgG0tCSwMCIwrx-5" value="chainslug" style="shape=parallelogram;perimeter=parallelogramPerimeter;whiteSpace=wrap;html=1;fixedSize=1;fillColor=#f8cecc;strokeColor=#b85450;" vertex="1" parent="Ape72RLgG0tCSwMCIwrx-3">
          <mxGeometry x="35.38" y="40" width="110" height="50" as="geometry" />
        </mxCell>
        <mxCell id="Ape72RLgG0tCSwMCIwrx-7" value="&lt;font style=&quot;font-size: 10px;&quot;&gt;Exist chainslug API&lt;br&gt;&amp;nbsp;in substrateApiMap ?&lt;/font&gt;" style="rhombus;whiteSpace=wrap;html=1;fillColor=#dae8fc;strokeColor=#6c8ebf;" vertex="1" parent="Ape72RLgG0tCSwMCIwrx-3">
          <mxGeometry x="20.38" y="120" width="140" height="80" as="geometry" />
        </mxCell>
        <mxCell id="Ape72RLgG0tCSwMCIwrx-9" value="" style="endArrow=classic;html=1;rounded=0;exitX=0.5;exitY=1;exitDx=0;exitDy=0;entryX=0.5;entryY=0;entryDx=0;entryDy=0;" edge="1" parent="Ape72RLgG0tCSwMCIwrx-3" source="Ape72RLgG0tCSwMCIwrx-5" target="Ape72RLgG0tCSwMCIwrx-7">
          <mxGeometry width="50" height="50" relative="1" as="geometry">
            <mxPoint x="97.5" y="90" as="sourcePoint" />
            <mxPoint x="95" y="120" as="targetPoint" />
          </mxGeometry>
        </mxCell>
        <mxCell id="Ape72RLgG0tCSwMCIwrx-11" value="Connect" style="rounded=0;whiteSpace=wrap;html=1;fillColor=#d5e8d4;strokeColor=#82b366;" vertex="1" parent="Ape72RLgG0tCSwMCIwrx-3">
          <mxGeometry x="47.88" y="236" width="85" height="30" as="geometry" />
        </mxCell>
        <mxCell id="Ape72RLgG0tCSwMCIwrx-8" value="" style="endArrow=classic;html=1;rounded=0;exitX=0.5;exitY=1;exitDx=0;exitDy=0;" edge="1" parent="Ape72RLgG0tCSwMCIwrx-3" source="Ape72RLgG0tCSwMCIwrx-7" target="Ape72RLgG0tCSwMCIwrx-11">
          <mxGeometry width="50" height="50" relative="1" as="geometry">
            <mxPoint x="530" y="270" as="sourcePoint" />
            <mxPoint x="95" y="300" as="targetPoint" />
          </mxGeometry>
        </mxCell>
        <mxCell id="Ape72RLgG0tCSwMCIwrx-103" value="YES" style="edgeLabel;html=1;align=center;verticalAlign=middle;resizable=0;points=[];" vertex="1" connectable="0" parent="Ape72RLgG0tCSwMCIwrx-8">
          <mxGeometry x="-0.4613" relative="1" as="geometry">
            <mxPoint as="offset" />
          </mxGeometry>
        </mxCell>
        <mxCell id="Ape72RLgG0tCSwMCIwrx-12" value="apiUrl !== &lt;br&gt;existed apiUrl" style="rhombus;whiteSpace=wrap;html=1;fillColor=#dae8fc;strokeColor=#6c8ebf;" vertex="1" parent="Ape72RLgG0tCSwMCIwrx-3">
          <mxGeometry x="20.38" y="310" width="140" height="60" as="geometry" />
        </mxCell>
        <mxCell id="Ape72RLgG0tCSwMCIwrx-13" value="updateApiUrl" style="rounded=0;whiteSpace=wrap;html=1;fillColor=#fff2cc;strokeColor=#d6b656;" vertex="1" parent="Ape72RLgG0tCSwMCIwrx-3">
          <mxGeometry x="240" y="325" width="85" height="30" as="geometry" />
        </mxCell>
        <mxCell id="Ape72RLgG0tCSwMCIwrx-15" value="this.parent?.getMetadata" style="rounded=0;whiteSpace=wrap;html=1;fillColor=#d5e8d4;strokeColor=#82b366;" vertex="1" parent="Ape72RLgG0tCSwMCIwrx-3">
          <mxGeometry x="220" y="145" width="170" height="30" as="geometry" />
        </mxCell>
        <mxCell id="Ape72RLgG0tCSwMCIwrx-26" value="metadata" style="rounded=0;whiteSpace=wrap;html=1;fillColor=#d5e8d4;strokeColor=#82b366;" vertex="1" parent="Ape72RLgG0tCSwMCIwrx-3">
          <mxGeometry x="445" y="145" width="170" height="30" as="geometry" />
        </mxCell>
        <mxCell id="Ape72RLgG0tCSwMCIwrx-38" value="create new instance of SubstrateApi" style="rounded=0;whiteSpace=wrap;html=1;fillColor=#d5e8d4;strokeColor=#82b366;" vertex="1" parent="Ape72RLgG0tCSwMCIwrx-3">
          <mxGeometry x="445" y="250" width="170" height="50" as="geometry" />
        </mxCell>
        <mxCell id="Ape72RLgG0tCSwMCIwrx-39" value="moniter connection status" style="rounded=0;whiteSpace=wrap;html=1;fillColor=#d5e8d4;strokeColor=#82b366;" vertex="1" parent="Ape72RLgG0tCSwMCIwrx-3">
          <mxGeometry x="445" y="370" width="170" height="30" as="geometry" />
        </mxCell>
        <mxCell id="Ape72RLgG0tCSwMCIwrx-41" value="" style="endArrow=classic;html=1;rounded=0;exitX=0.5;exitY=1;exitDx=0;exitDy=0;entryX=0.5;entryY=0;entryDx=0;entryDy=0;" edge="1" parent="Ape72RLgG0tCSwMCIwrx-3" source="Ape72RLgG0tCSwMCIwrx-11" target="Ape72RLgG0tCSwMCIwrx-12">
          <mxGeometry width="50" height="50" relative="1" as="geometry">
            <mxPoint x="105" y="210" as="sourcePoint" />
            <mxPoint x="105" y="240" as="targetPoint" />
          </mxGeometry>
        </mxCell>
        <mxCell id="Ape72RLgG0tCSwMCIwrx-43" value="" style="endArrow=classic;html=1;rounded=0;exitX=1;exitY=0.5;exitDx=0;exitDy=0;entryX=0;entryY=0.5;entryDx=0;entryDy=0;" edge="1" parent="Ape72RLgG0tCSwMCIwrx-3" source="Ape72RLgG0tCSwMCIwrx-7" target="Ape72RLgG0tCSwMCIwrx-15">
          <mxGeometry width="50" height="50" relative="1" as="geometry">
            <mxPoint x="180" y="250" as="sourcePoint" />
            <mxPoint x="230" y="200" as="targetPoint" />
          </mxGeometry>
        </mxCell>
        <mxCell id="Ape72RLgG0tCSwMCIwrx-104" value="NO" style="edgeLabel;html=1;align=center;verticalAlign=middle;resizable=0;points=[];" vertex="1" connectable="0" parent="Ape72RLgG0tCSwMCIwrx-43">
          <mxGeometry x="-0.292" y="1" relative="1" as="geometry">
            <mxPoint as="offset" />
          </mxGeometry>
        </mxCell>
        <mxCell id="Ape72RLgG0tCSwMCIwrx-45" value="" style="endArrow=classic;html=1;rounded=0;exitX=1;exitY=0.5;exitDx=0;exitDy=0;entryX=0;entryY=0.5;entryDx=0;entryDy=0;" edge="1" parent="Ape72RLgG0tCSwMCIwrx-3" source="Ape72RLgG0tCSwMCIwrx-15" target="Ape72RLgG0tCSwMCIwrx-26">
          <mxGeometry width="50" height="50" relative="1" as="geometry">
            <mxPoint x="170" y="170" as="sourcePoint" />
            <mxPoint x="230" y="170" as="targetPoint" />
          </mxGeometry>
        </mxCell>
        <mxCell id="Ape72RLgG0tCSwMCIwrx-46" value="" style="endArrow=classic;html=1;rounded=0;exitX=0.5;exitY=1;exitDx=0;exitDy=0;entryX=0.5;entryY=0;entryDx=0;entryDy=0;" edge="1" parent="Ape72RLgG0tCSwMCIwrx-3" source="Ape72RLgG0tCSwMCIwrx-26" target="Ape72RLgG0tCSwMCIwrx-38">
          <mxGeometry width="50" height="50" relative="1" as="geometry">
            <mxPoint x="180" y="250" as="sourcePoint" />
            <mxPoint x="230" y="200" as="targetPoint" />
          </mxGeometry>
        </mxCell>
        <mxCell id="Ape72RLgG0tCSwMCIwrx-47" value="" style="endArrow=classic;html=1;rounded=0;exitX=0.5;exitY=1;exitDx=0;exitDy=0;entryX=0.5;entryY=0;entryDx=0;entryDy=0;" edge="1" parent="Ape72RLgG0tCSwMCIwrx-3" source="Ape72RLgG0tCSwMCIwrx-38" target="Ape72RLgG0tCSwMCIwrx-39">
          <mxGeometry width="50" height="50" relative="1" as="geometry">
            <mxPoint x="180" y="250" as="sourcePoint" />
            <mxPoint x="230" y="200" as="targetPoint" />
          </mxGeometry>
        </mxCell>
        <mxCell id="Ape72RLgG0tCSwMCIwrx-58" value="" style="endArrow=none;html=1;rounded=0;entryX=0.5;entryY=1;entryDx=0;entryDy=0;" edge="1" parent="Ape72RLgG0tCSwMCIwrx-3">
          <mxGeometry width="50" height="50" relative="1" as="geometry">
            <mxPoint x="530" y="450" as="sourcePoint" />
            <mxPoint x="529.86" y="400" as="targetPoint" />
          </mxGeometry>
        </mxCell>
        <mxCell id="Ape72RLgG0tCSwMCIwrx-61" value="" style="endArrow=classic;html=1;rounded=0;entryX=0.5;entryY=0;entryDx=0;entryDy=0;" edge="1" parent="Ape72RLgG0tCSwMCIwrx-3" target="Ape72RLgG0tCSwMCIwrx-64">
          <mxGeometry width="50" height="50" relative="1" as="geometry">
            <mxPoint x="324" y="450" as="sourcePoint" />
            <mxPoint x="144.75" y="460" as="targetPoint" />
          </mxGeometry>
        </mxCell>
        <mxCell id="Ape72RLgG0tCSwMCIwrx-63" value="" style="endArrow=classic;html=1;rounded=0;entryX=0;entryY=0.5;entryDx=0;entryDy=0;exitX=1;exitY=0.5;exitDx=0;exitDy=0;" edge="1" parent="Ape72RLgG0tCSwMCIwrx-3" source="Ape72RLgG0tCSwMCIwrx-12" target="Ape72RLgG0tCSwMCIwrx-13">
          <mxGeometry width="50" height="50" relative="1" as="geometry">
            <mxPoint x="140" y="310" as="sourcePoint" />
            <mxPoint x="190" y="260" as="targetPoint" />
          </mxGeometry>
        </mxCell>
        <mxCell id="Ape72RLgG0tCSwMCIwrx-105" value="YES" style="edgeLabel;html=1;align=center;verticalAlign=middle;resizable=0;points=[];" vertex="1" connectable="0" parent="Ape72RLgG0tCSwMCIwrx-63">
          <mxGeometry x="-0.4853" y="1" relative="1" as="geometry">
            <mxPoint x="13" as="offset" />
          </mxGeometry>
        </mxCell>
        <mxCell id="Ape72RLgG0tCSwMCIwrx-64" value="UpdateMetadata (cacheMetadata)" style="swimlane;whiteSpace=wrap;html=1;fillColor=#d5e8d4;strokeColor=#82b366;swimlaneFillColor=#D5E8D4;" vertex="1" parent="Ape72RLgG0tCSwMCIwrx-3">
          <mxGeometry x="14" y="479" width="620" height="460" as="geometry" />
        </mxCell>
        <mxCell id="Ape72RLgG0tCSwMCIwrx-96" style="edgeStyle=orthogonalEdgeStyle;rounded=0;orthogonalLoop=1;jettySize=auto;html=1;entryX=0.5;entryY=0;entryDx=0;entryDy=0;" edge="1" parent="Ape72RLgG0tCSwMCIwrx-64" source="Ape72RLgG0tCSwMCIwrx-65" target="Ape72RLgG0tCSwMCIwrx-66">
          <mxGeometry relative="1" as="geometry">
            <Array as="points">
              <mxPoint x="310" y="91" />
              <mxPoint x="80" y="91" />
            </Array>
          </mxGeometry>
        </mxCell>
        <mxCell id="Ape72RLgG0tCSwMCIwrx-97" style="edgeStyle=orthogonalEdgeStyle;rounded=0;orthogonalLoop=1;jettySize=auto;html=1;" edge="1" parent="Ape72RLgG0tCSwMCIwrx-64" source="Ape72RLgG0tCSwMCIwrx-65" target="Ape72RLgG0tCSwMCIwrx-67">
          <mxGeometry relative="1" as="geometry">
            <Array as="points">
              <mxPoint x="310" y="91" />
              <mxPoint x="500" y="91" />
            </Array>
          </mxGeometry>
        </mxCell>
        <mxCell id="Ape72RLgG0tCSwMCIwrx-65" value="substrateApi ready" style="rounded=0;whiteSpace=wrap;html=1;fillColor=#fff2cc;strokeColor=#d6b656;" vertex="1" parent="Ape72RLgG0tCSwMCIwrx-64">
          <mxGeometry x="255.63" y="45" width="108.75" height="30" as="geometry" />
        </mxCell>
        <mxCell id="Ape72RLgG0tCSwMCIwrx-94" style="edgeStyle=orthogonalEdgeStyle;rounded=0;orthogonalLoop=1;jettySize=auto;html=1;exitX=0.5;exitY=1;exitDx=0;exitDy=0;entryX=0.5;entryY=0;entryDx=0;entryDy=0;" edge="1" parent="Ape72RLgG0tCSwMCIwrx-64">
          <mxGeometry relative="1" as="geometry">
            <mxPoint x="79.93499999999995" y="134" as="sourcePoint" />
            <mxPoint x="310" y="242" as="targetPoint" />
            <Array as="points">
              <mxPoint x="80" y="199" />
              <mxPoint x="310" y="199" />
            </Array>
          </mxGeometry>
        </mxCell>
        <mxCell id="Ape72RLgG0tCSwMCIwrx-66" value="get metadata from Api" style="rounded=0;whiteSpace=wrap;html=1;fillColor=#fff2cc;strokeColor=#d6b656;" vertex="1" parent="Ape72RLgG0tCSwMCIwrx-64">
          <mxGeometry x="12" y="105" width="135.87" height="30" as="geometry" />
        </mxCell>
        <mxCell id="Ape72RLgG0tCSwMCIwrx-67" value="get metadata from db" style="rounded=0;whiteSpace=wrap;html=1;fillColor=#fff2cc;strokeColor=#d6b656;" vertex="1" parent="Ape72RLgG0tCSwMCIwrx-64">
          <mxGeometry x="432.07" y="105" width="135.87" height="30" as="geometry" />
        </mxCell>
        <mxCell id="Ape72RLgG0tCSwMCIwrx-69" value="Compare&lt;br&gt;(specVersion, &lt;br&gt;genesisHash)" style="rhombus;whiteSpace=wrap;html=1;fillColor=#dae8fc;strokeColor=#6c8ebf;" vertex="1" parent="Ape72RLgG0tCSwMCIwrx-64">
          <mxGeometry x="225" y="243" width="170" height="90" as="geometry" />
        </mxCell>
        <mxCell id="Ape72RLgG0tCSwMCIwrx-93" style="edgeStyle=orthogonalEdgeStyle;rounded=0;orthogonalLoop=1;jettySize=auto;html=1;exitX=0;exitY=0.5;exitDx=0;exitDy=0;entryX=0.5;entryY=0;entryDx=0;entryDy=0;" edge="1" parent="Ape72RLgG0tCSwMCIwrx-64" source="Ape72RLgG0tCSwMCIwrx-70" target="Ape72RLgG0tCSwMCIwrx-69">
          <mxGeometry relative="1" as="geometry" />
        </mxCell>
        <mxCell id="Ape72RLgG0tCSwMCIwrx-101" value="YES" style="edgeLabel;html=1;align=center;verticalAlign=middle;resizable=0;points=[];" vertex="1" connectable="0" parent="Ape72RLgG0tCSwMCIwrx-93">
          <mxGeometry x="-0.3461" y="-2" relative="1" as="geometry">
            <mxPoint as="offset" />
          </mxGeometry>
        </mxCell>
        <mxCell id="Ape72RLgG0tCSwMCIwrx-107" style="edgeStyle=orthogonalEdgeStyle;rounded=0;orthogonalLoop=1;jettySize=auto;html=1;entryX=1;entryY=0.75;entryDx=0;entryDy=0;" edge="1" parent="Ape72RLgG0tCSwMCIwrx-64" source="Ape72RLgG0tCSwMCIwrx-70" target="Ape72RLgG0tCSwMCIwrx-81">
          <mxGeometry relative="1" as="geometry">
            <Array as="points">
              <mxPoint x="500" y="387" />
            </Array>
          </mxGeometry>
        </mxCell>
        <mxCell id="Ape72RLgG0tCSwMCIwrx-108" value="NO" style="edgeLabel;html=1;align=center;verticalAlign=middle;resizable=0;points=[];" vertex="1" connectable="0" parent="Ape72RLgG0tCSwMCIwrx-107">
          <mxGeometry x="-0.7875" relative="1" as="geometry">
            <mxPoint as="offset" />
          </mxGeometry>
        </mxCell>
        <mxCell id="Ape72RLgG0tCSwMCIwrx-70" value="Check exists metadata" style="rhombus;whiteSpace=wrap;html=1;fillColor=#dae8fc;strokeColor=#6c8ebf;" vertex="1" parent="Ape72RLgG0tCSwMCIwrx-64">
          <mxGeometry x="415" y="169" width="170" height="60" as="geometry" />
        </mxCell>
        <mxCell id="Ape72RLgG0tCSwMCIwrx-75" value="" style="endArrow=classic;html=1;rounded=0;exitX=0.5;exitY=1;exitDx=0;exitDy=0;entryX=0.5;entryY=0;entryDx=0;entryDy=0;" edge="1" parent="Ape72RLgG0tCSwMCIwrx-64" target="Ape72RLgG0tCSwMCIwrx-70">
          <mxGeometry width="50" height="50" relative="1" as="geometry">
            <mxPoint x="499.93499999999995" y="135" as="sourcePoint" />
            <mxPoint x="500" y="163" as="targetPoint" />
          </mxGeometry>
        </mxCell>
        <mxCell id="Ape72RLgG0tCSwMCIwrx-77" value="End" style="ellipse;whiteSpace=wrap;html=1;fillColor=#f8cecc;strokeColor=#b85450;" vertex="1" parent="Ape72RLgG0tCSwMCIwrx-64">
          <mxGeometry x="36" y="268" width="60" height="40" as="geometry" />
        </mxCell>
        <mxCell id="Ape72RLgG0tCSwMCIwrx-79" value="" style="endArrow=classic;html=1;rounded=0;entryX=1;entryY=0.5;entryDx=0;entryDy=0;exitX=0;exitY=0.5;exitDx=0;exitDy=0;" edge="1" parent="Ape72RLgG0tCSwMCIwrx-64">
          <mxGeometry width="50" height="50" relative="1" as="geometry">
            <mxPoint x="225.00000000000023" y="288" as="sourcePoint" />
            <mxPoint x="95.999999999995" y="288" as="targetPoint" />
          </mxGeometry>
        </mxCell>
        <mxCell id="Ape72RLgG0tCSwMCIwrx-99" value="YES" style="edgeLabel;html=1;align=center;verticalAlign=middle;resizable=0;points=[];" vertex="1" connectable="0" parent="Ape72RLgG0tCSwMCIwrx-79">
          <mxGeometry x="-0.1349" relative="1" as="geometry">
            <mxPoint as="offset" />
          </mxGeometry>
        </mxCell>
        <mxCell id="Ape72RLgG0tCSwMCIwrx-92" style="edgeStyle=orthogonalEdgeStyle;rounded=0;orthogonalLoop=1;jettySize=auto;html=1;exitX=0.5;exitY=1;exitDx=0;exitDy=0;entryX=0.5;entryY=0;entryDx=0;entryDy=0;" edge="1" parent="Ape72RLgG0tCSwMCIwrx-64" source="Ape72RLgG0tCSwMCIwrx-81" target="Ape72RLgG0tCSwMCIwrx-82">
          <mxGeometry relative="1" as="geometry" />
        </mxCell>
        <mxCell id="Ape72RLgG0tCSwMCIwrx-81" value="get metadataV15" style="rounded=0;whiteSpace=wrap;html=1;fillColor=#fff2cc;strokeColor=#d6b656;" vertex="1" parent="Ape72RLgG0tCSwMCIwrx-64">
          <mxGeometry x="242.07" y="365" width="135.87" height="30" as="geometry" />
        </mxCell>
        <mxCell id="Ape72RLgG0tCSwMCIwrx-82" value="chainService?.upsertMetadata" style="rounded=0;whiteSpace=wrap;html=1;fillColor=#fff2cc;strokeColor=#d6b656;" vertex="1" parent="Ape72RLgG0tCSwMCIwrx-64">
          <mxGeometry x="210" y="422" width="200" height="30" as="geometry" />
        </mxCell>
        <mxCell id="Ape72RLgG0tCSwMCIwrx-88" value="" style="endArrow=classic;html=1;rounded=0;exitX=0.5;exitY=1;exitDx=0;exitDy=0;entryX=0.5;entryY=0;entryDx=0;entryDy=0;" edge="1" parent="Ape72RLgG0tCSwMCIwrx-64" source="Ape72RLgG0tCSwMCIwrx-69" target="Ape72RLgG0tCSwMCIwrx-81">
          <mxGeometry width="50" height="50" relative="1" as="geometry">
            <mxPoint x="175" y="410" as="sourcePoint" />
            <mxPoint x="225" y="360" as="targetPoint" />
          </mxGeometry>
        </mxCell>
        <mxCell id="Ape72RLgG0tCSwMCIwrx-100" value="NO" style="edgeLabel;html=1;align=center;verticalAlign=middle;resizable=0;points=[];" vertex="1" connectable="0" parent="Ape72RLgG0tCSwMCIwrx-88">
          <mxGeometry x="-0.4063" relative="1" as="geometry">
            <mxPoint as="offset" />
          </mxGeometry>
        </mxCell>
        <mxCell id="WfOUrRf2KnYL8SBxbBoc-1" value="Need to add compare?" style="text;html=1;align=center;verticalAlign=middle;whiteSpace=wrap;rounded=0;fillColor=#e1d5e7;strokeColor=#9673a6;" vertex="1" parent="Ape72RLgG0tCSwMCIwrx-64">
          <mxGeometry x="170.63" y="229" width="85" height="30" as="geometry" />
        </mxCell>
        <mxCell id="Ape72RLgG0tCSwMCIwrx-83" value="" style="endArrow=none;html=1;rounded=0;entryX=0.5;entryY=1;entryDx=0;entryDy=0;" edge="1" parent="Ape72RLgG0tCSwMCIwrx-3">
          <mxGeometry width="50" height="50" relative="1" as="geometry">
            <mxPoint x="90" y="450" as="sourcePoint" />
            <mxPoint x="90.13" y="370" as="targetPoint" />
          </mxGeometry>
        </mxCell>
        <mxCell id="Ape72RLgG0tCSwMCIwrx-106" value="NO" style="edgeLabel;html=1;align=center;verticalAlign=middle;resizable=0;points=[];" vertex="1" connectable="0" parent="Ape72RLgG0tCSwMCIwrx-83">
          <mxGeometry x="0.2652" relative="1" as="geometry">
            <mxPoint as="offset" />
          </mxGeometry>
        </mxCell>
        <mxCell id="Ape72RLgG0tCSwMCIwrx-84" value="" style="endArrow=none;html=1;rounded=0;" edge="1" parent="Ape72RLgG0tCSwMCIwrx-3" source="Ape72RLgG0tCSwMCIwrx-111">
          <mxGeometry width="50" height="50" relative="1" as="geometry">
            <mxPoint x="90" y="450" as="sourcePoint" />
            <mxPoint x="530" y="450" as="targetPoint" />
          </mxGeometry>
        </mxCell>
        <mxCell id="Ape72RLgG0tCSwMCIwrx-110" value="" style="endArrow=none;html=1;rounded=0;" edge="1" parent="Ape72RLgG0tCSwMCIwrx-3" target="Ape72RLgG0tCSwMCIwrx-109">
          <mxGeometry width="50" height="50" relative="1" as="geometry">
            <mxPoint x="90" y="450" as="sourcePoint" />
            <mxPoint x="-310" y="-640" as="targetPoint" />
          </mxGeometry>
        </mxCell>
        <mxCell id="Ape72RLgG0tCSwMCIwrx-109" value="existed" style="shape=parallelogram;perimeter=parallelogramPerimeter;whiteSpace=wrap;html=1;fixedSize=1;fillColor=#f8cecc;strokeColor=#b85450;" vertex="1" parent="Ape72RLgG0tCSwMCIwrx-3">
          <mxGeometry x="150" y="435" width="90" height="30" as="geometry" />
        </mxCell>
        <mxCell id="Ape72RLgG0tCSwMCIwrx-112" value="" style="endArrow=none;html=1;rounded=0;" edge="1" parent="Ape72RLgG0tCSwMCIwrx-3" source="Ape72RLgG0tCSwMCIwrx-109" target="Ape72RLgG0tCSwMCIwrx-111">
          <mxGeometry width="50" height="50" relative="1" as="geometry">
            <mxPoint x="-610" y="-640" as="sourcePoint" />
            <mxPoint x="-310" y="-640" as="targetPoint" />
          </mxGeometry>
        </mxCell>
        <mxCell id="Ape72RLgG0tCSwMCIwrx-111" value="apiObject" style="shape=parallelogram;perimeter=parallelogramPerimeter;whiteSpace=wrap;html=1;fixedSize=1;fillColor=#f8cecc;strokeColor=#b85450;" vertex="1" parent="Ape72RLgG0tCSwMCIwrx-3">
          <mxGeometry x="409" y="435" width="90" height="30" as="geometry" />
        </mxCell>
        <mxCell id="WfOUrRf2KnYL8SBxbBoc-3" value="Begin" style="ellipse;whiteSpace=wrap;html=1;fillColor=#f8cecc;strokeColor=#b85450;" vertex="1" parent="Ape72RLgG0tCSwMCIwrx-3">
          <mxGeometry x="294" y="45" width="60" height="40" as="geometry" />
        </mxCell>
        <mxCell id="WfOUrRf2KnYL8SBxbBoc-4" value="" style="endArrow=classic;html=1;rounded=0;entryX=1;entryY=0.5;entryDx=0;entryDy=0;exitX=0;exitY=0.5;exitDx=0;exitDy=0;" edge="1" parent="Ape72RLgG0tCSwMCIwrx-3" source="WfOUrRf2KnYL8SBxbBoc-3" target="Ape72RLgG0tCSwMCIwrx-5">
          <mxGeometry width="50" height="50" relative="1" as="geometry">
            <mxPoint x="250" y="350" as="sourcePoint" />
            <mxPoint x="300" y="300" as="targetPoint" />
          </mxGeometry>
        </mxCell>
      </root>
    </mxGraphModel>
  </diagram>
  <diagram id="KpJIxQdMShsSgxQ7I7D_" name="Page-2">
    <mxGraphModel grid="1" page="1" gridSize="10" guides="1" tooltips="1" connect="1" arrows="1" fold="1" pageScale="1" pageWidth="850" pageHeight="1100" math="0" shadow="0">
      <root>
        <mxCell id="0" />
        <mxCell id="1" parent="0" />
      </root>
    </mxGraphModel>
  </diagram>
</mxfile>
